<?xml version="1.0" encoding="UTF-8"?>
<svg width="80px" height="32px" viewBox="0 0 110 32" version="1.1" xmlns="http://www.w3.org/2000/svg" xmlns:xlink="http://www.w3.org/1999/xlink">
    <!-- Generator: Sketch 40.2 (33826) - http://www.bohemiancoding.com/sketch -->
    <title>logo</title>
    <desc>Created with Sketch.</desc>
    <defs></defs>
    <g id="Symbols" stroke="none" stroke-width="1" fill="none" fill-rule="evenodd">
        <g id="logo" fill="#F25D00">
            <path d="M18.2407227,16.0761719 C18.0288075,17.7916752 17.579756,19.3179458 16.8935547,20.6550293 C16.2073533,21.9921128 15.3571828,22.9860807 14.3430176,23.6369629 C13.3288524,24.2878451 12.1961326,24.5981447 10.9448242,24.5678711 C9.51187435,24.5275063 8.35140418,23.9624078 7.46337891,22.8725586 L5.97998047,30.546875 L1,30.546875 L4.93554688,7.87207031 L9.53710938,7.85693359 L9.27978516,9.41601563 C10.3797256,8.14452489 11.6764248,7.52897115 13.1699219,7.56933594 C14.7643309,7.58951833 16.0080522,8.15966237 16.901123,9.27978516 C17.7941939,10.3999079 18.2709958,11.9287013 18.331543,13.8662109 C18.3517254,14.4918651 18.3214522,15.2285114 18.2407227,16.0761719 L18.2407227,16.0761719 Z M13.3969727,14.0478516 C13.3465167,12.3828042 12.7814182,11.5351564 11.7016602,11.5048828 C10.6521757,11.4443356 9.77930036,11.873205 9.08300781,12.7915039 L7.91748047,19.2851562 C8.23030755,20.1630903 8.92658965,20.6121418 10.0063477,20.6323242 C11.772307,20.6625978 12.8570943,19.1438955 13.2607422,16.0761719 C13.351563,15.107417 13.3969727,14.431317 13.3969727,14.0478516 L13.3969727,14.0478516 Z M29.2602539,22.4638672 C28.0392192,23.9069083 26.5659266,24.6082359 24.840332,24.5678711 C23.2358318,24.5476887 22.0274292,23.9876357 21.2150879,22.8876953 C20.4027466,21.7877549 20.0874014,20.3144624 20.269043,18.4677734 L22.0400391,7.87207031 L27.0200195,7.87207031 L25.21875,18.5283203 C25.1884764,18.820965 25.1884764,19.0883777 25.21875,19.3305664 C25.2893884,20.1580445 25.7788041,20.5869139 26.6870117,20.6171875 C27.7364961,20.6575523 28.6295536,20.2438194 29.3662109,19.3759766 L31.3945312,7.87207031 L36.4047852,7.87207031 L33.559082,24.25 L28.9272461,24.25 L29.2602539,22.4638672 Z M45.4716797,19.5576172 C45.6028652,18.8915982 45.0882219,18.3920915 43.9277344,18.059082 L42.8530273,17.7866211 C41.0971592,17.3224261 39.810551,16.6715537 38.9931641,15.8339844 C38.1757772,14.9964151 37.7923175,14.0024472 37.8427734,12.8520508 C37.8932294,11.2778242 38.5920343,9.99878422 39.939209,9.01489258 C41.2863837,8.03100094 42.9287013,7.54915354 44.8662109,7.56933594 C46.7936294,7.58951833 48.3552186,8.07893401 49.5510254,9.03759766 C50.7468322,9.9962613 51.3548176,11.2879151 51.375,12.9125977 L46.4101562,12.8974609 C46.450521,11.6057878 45.880377,10.9599609 44.699707,10.9599609 C44.1951472,10.9599609 43.7259136,11.1088039 43.2919922,11.4064941 C42.8580707,11.7041844 42.6007491,12.1002579 42.5200195,12.5947266 C42.3484692,13.4121135 43.0699789,13.9721665 44.6845703,14.2749023 C46.0872466,14.6079118 47.1720339,14.9938943 47.9389648,15.4328613 C48.7058958,15.8718284 49.2911764,16.414222 49.6948242,17.0600586 C50.0984721,17.7058952 50.2851564,18.4829056 50.2548828,19.3911133 C50.2246092,20.3800505 49.9016958,21.2630169 49.2861328,22.0400391 C48.6705698,22.8170612 47.7800351,23.4376604 46.614502,23.9018555 C45.4489688,24.3660505 44.1850654,24.583008 42.8227539,24.5527344 C41.6420839,24.5426432 40.5446828,24.2954126 39.5305176,23.8110352 C38.5163524,23.3266577 37.7242053,22.6682171 37.1540527,21.8356934 C36.5839001,21.0031697 36.2887371,20.0470432 36.2685547,18.9672852 L40.9003906,18.9975586 C40.920573,20.4506909 41.6471283,21.167155 43.0800781,21.1469727 C43.6956411,21.1469727 44.2203754,21.0082208 44.6542969,20.7307129 C45.0882183,20.453205 45.3606765,20.062177 45.4716797,19.5576172 L45.4716797,19.5576172 Z M59.0039062,9.65820312 C60.224941,8.23534445 61.6326418,7.53401683 63.2270508,7.55419922 C64.8719158,7.594564 66.0904095,8.19498118 66.8825684,9.35546875 C67.6747273,10.5159563 67.9597993,12.0901593 67.737793,14.078125 L66.0424805,24.25 L61.0625,24.25 L62.7729492,14.0175781 C62.813314,13.6744775 62.823405,13.351564 62.8032227,13.0488281 C62.7325843,12.0497997 62.1775768,11.5351564 61.1381836,11.5048828 C60.2400671,11.4847004 59.4428746,11.8126594 58.746582,12.4887695 L56.6577148,24.25 L51.6777344,24.25 L55.7192383,1 L60.6992188,1 L59.0039062,9.65820312 Z M84.418457,16.1367188 C84.2166331,17.8017661 83.7675816,19.3002863 83.0712891,20.6323242 C82.3749965,21.9643621 81.5122122,22.9608528 80.4829102,23.6218262 C79.4536081,24.2827995 78.3133201,24.5981447 77.0620117,24.5678711 C75.1648668,24.5275063 73.7117563,23.886725 72.7026367,22.6455078 L71.234375,30.546875 L68.4946289,30.546875 L72.4301758,7.87207031 L74.9125977,7.85693359 L74.6098633,9.68847656 C75.9620836,8.2353443 77.5816963,7.52897115 79.46875,7.56933594 C81.0429766,7.60970072 82.2690386,8.18993581 83.1469727,9.31005859 C84.0249067,10.4301814 84.4890948,11.9741113 84.5395508,13.9418945 C84.549642,14.5877311 84.5244144,15.2133759 84.4638672,15.8188477 L84.418457,16.1367188 Z M81.7241211,15.8188477 L81.7998047,14.5473633 C81.7998047,13.0740486 81.5197782,11.9463744 80.9597168,11.1643066 C80.3996554,10.3822389 79.589849,9.97102885 78.5302734,9.93066406 C76.9459556,9.89029928 75.578619,10.6420821 74.4282227,12.1860352 L73.0507812,20.0419922 C73.6663442,21.4951245 74.7713136,22.2418618 76.3657227,22.2822266 C77.7280342,22.3125002 78.8859816,21.7801975 79.8395996,20.6853027 C80.7932177,19.5904079 81.4213852,17.9682725 81.7241211,15.8188477 L81.7241211,15.8188477 Z M89.5800781,24.25 L86.8554688,24.25 L89.7011719,7.87207031 L92.4257812,7.87207031 L89.5800781,24.25 Z M91.8354492,1.89306641 C92.2996442,1.87288401 92.6856267,2.01163588 92.9934082,2.30932617 C93.3011897,2.60701646 93.4550781,2.99804445 93.4550781,3.48242188 C93.4449869,3.9567081 93.2910985,4.34521333 92.9934082,4.64794922 C92.6957179,4.95068511 92.3097354,5.11214183 91.8354492,5.13232422 C91.361163,5.15250661 90.9726578,5.0162775 90.6699219,4.72363281 C90.367186,4.43098812 90.2208658,4.04752841 90.230957,3.57324219 C90.2410482,3.09895596 90.3924139,2.70540521 90.6850586,2.39257812 C90.9777033,2.07975104 91.361163,1.9132488 91.8354492,1.89306641 L91.8354492,1.89306641 Z M99.4946289,7.85693359 L99.1010742,9.93066406 C100.574389,8.31607266 102.249502,7.52897115 104.126465,7.56933594 C105.670418,7.60970072 106.810706,8.1445261 107.547363,9.17382812 C108.284021,10.2031301 108.556479,11.6511951 108.364746,13.5180664 L106.578613,24.25 L103.838867,24.25 L105.640137,13.4726562 C105.700684,12.9781876 105.705729,12.5190451 105.655273,12.0952148 C105.483723,10.6824474 104.651212,9.96093765 103.157715,9.93066406 C101.51285,9.90039047 100.06983,10.7783114 98.8286133,12.5644531 L96.800293,24.25 L94.0605469,24.25 L96.90625,7.87207031 L99.4946289,7.85693359 Z" id="pushpin"></path>
        </g>
    </g>
</svg>